<svg width="100" height="86" xmlns="http://www.w3.org/2000/svg"><g transform="translate(10 3)" fill="none" fill-rule="evenodd"><rect fill="#FFF" fill-rule="nonzero" width="80" height="80" rx="40"/><rect stroke="#000" x="-.367" y="-.367" width="80.733" height="80.733" rx="5"/><path d="M5.393 2A3.385 3.385 0 0 0 2 5.393v69.214A3.385 3.385 0 0 0 5.393 78h37.321V42.714h-6.898l10.97-19 10.97 19h-6.899V78h23.75A3.385 3.385 0 0 0 78 74.607V5.393A3.385 3.385 0 0 0 74.607 2H38.643v16.286h6.898l-10.97 19-10.97-19H30.5V2H5.393z" fill="#0D69E1" fill-rule="nonzero"/><path fill="red" fill-rule="nonzero" d="M32 2.667V20h-5.801l8.468 14.667L43.134 20h-5.801V2.667z"/></g></svg>